<svg width="129" height="20" viewBox="0 0 129 20" fill="none" xmlns="http://www.w3.org/2000/svg">
<path d="M0.63 8.1408C0.63 6.9048 0.906 5.8008 1.458 4.8288C2.022 3.84479 2.784 3.0828 3.744 2.5428C4.716 1.9908 5.802 1.7148 7.002 1.7148C8.406 1.7148 9.636 2.0748 10.692 2.7948C11.748 3.5148 12.486 4.5108 12.906 5.7828H10.008C9.72 5.1828 9.312 4.7328 8.784 4.43279C8.268 4.1328 7.668 3.9828 6.984 3.9828C6.252 3.9828 5.598 4.1568 5.022 4.5048C4.458 4.8408 4.014 5.3208 3.69 5.9448C3.378 6.5688 3.222 7.3008 3.222 8.1408C3.222 8.9688 3.378 9.7008 3.69 10.3368C4.014 10.9608 4.458 11.4468 5.022 11.7948C5.598 12.1308 6.252 12.2988 6.984 12.2988C7.668 12.2988 8.268 12.1488 8.784 11.8488C9.312 11.5368 9.72 11.0808 10.008 10.4808H12.906C12.486 11.7648 11.748 12.7668 10.692 13.4868C9.648 14.1948 8.418 14.5488 7.002 14.5488C5.802 14.5488 4.716 14.2788 3.744 13.7388C2.784 13.1868 2.022 12.4248 1.458 11.4528C0.906 10.4808 0.63 9.3768 0.63 8.1408ZM17.5784 6.0168C17.9024 5.4888 18.3224 5.0748 18.8384 4.7748C19.3664 4.4748 19.9664 4.3248 20.6384 4.3248V6.9708H19.9724C19.1804 6.9708 18.5804 7.1568 18.1724 7.5288C17.7764 7.9008 17.5784 8.5488 17.5784 9.4728V14.4408H15.0584V4.4688H17.5784V6.0168ZM31.8758 4.4688L25.7018 19.1568H23.0198L25.1798 14.1888L21.1838 4.4688H24.0098L26.5838 11.4348L29.1938 4.4688H31.8758ZM35.7542 5.9088C36.0782 5.4528 36.5222 5.0748 37.0862 4.7748C37.6622 4.4628 38.3162 4.3068 39.0482 4.3068C39.9002 4.3068 40.6682 4.5168 41.3522 4.9368C42.0482 5.3568 42.5942 5.9568 42.9902 6.7368C43.3982 7.5048 43.6022 8.3988 43.6022 9.4188C43.6022 10.4388 43.3982 11.3448 42.9902 12.1368C42.5942 12.9168 42.0482 13.5228 41.3522 13.9548C40.6682 14.3868 39.9002 14.6028 39.0482 14.6028C38.3162 14.6028 37.6682 14.4528 37.1042 14.1528C36.5522 13.8528 36.1022 13.4748 35.7542 13.0188V19.1928H33.2342V4.4688H35.7542V5.9088ZM41.0282 9.4188C41.0282 8.8188 40.9022 8.3028 40.6502 7.8708C40.4102 7.4268 40.0862 7.0908 39.6782 6.8628C39.2822 6.6348 38.8502 6.5208 38.3822 6.5208C37.9262 6.5208 37.4942 6.6408 37.0862 6.8808C36.6902 7.1088 36.3662 7.4448 36.1142 7.8888C35.8742 8.3328 35.7542 8.8548 35.7542 9.4548C35.7542 10.0548 35.8742 10.5768 36.1142 11.0208C36.3662 11.4648 36.6902 11.8068 37.0862 12.0468C37.4942 12.2748 37.9262 12.3888 38.3822 12.3888C38.8502 12.3888 39.2822 12.2688 39.6782 12.0288C40.0862 11.7888 40.4102 11.4468 40.6502 11.0028C40.9022 10.5588 41.0282 10.0308 41.0282 9.4188ZM48.3674 6.5388V11.3628C48.3674 11.6988 48.4454 11.9448 48.6014 12.1008C48.7694 12.2448 49.0454 12.3168 49.4294 12.3168H50.5994V14.4408H49.0154C46.8914 14.4408 45.8294 13.4088 45.8294 11.3448V6.5388H44.6414V4.4688H45.8294V2.0028H48.3674V4.4688H50.5994V6.5388H48.3674ZM53.6899 3.2808C53.2459 3.2808 52.8739 3.1428 52.5739 2.8668C52.2859 2.5788 52.1419 2.2248 52.1419 1.8048C52.1419 1.3848 52.2859 1.0368 52.5739 0.760795C52.8739 0.472795 53.2459 0.328795 53.6899 0.328795C54.1339 0.328795 54.4999 0.472795 54.7879 0.760795C55.0879 1.0368 55.2379 1.3848 55.2379 1.8048C55.2379 2.2248 55.0879 2.5788 54.7879 2.8668C54.4999 3.1428 54.1339 3.2808 53.6899 3.2808ZM54.9319 4.4688V14.4408H52.4119V4.4688H54.9319ZM61.2377 14.6028C60.4217 14.6028 59.6897 14.4588 59.0417 14.1708C58.3937 13.8708 57.8777 13.4688 57.4937 12.9648C57.1217 12.4608 56.9177 11.9028 56.8817 11.2908H59.4197C59.4677 11.6748 59.6537 11.9928 59.9777 12.2448C60.3137 12.4968 60.7277 12.6228 61.2197 12.6228C61.6997 12.6228 62.0717 12.5268 62.3357 12.3348C62.6117 12.1428 62.7497 11.8968 62.7497 11.5968C62.7497 11.2728 62.5817 11.0328 62.2457 10.8768C61.9217 10.7088 61.3997 10.5288 60.6797 10.3368C59.9357 10.1568 59.3237 9.9708 58.8437 9.7788C58.3757 9.5868 57.9677 9.2928 57.6197 8.8968C57.2837 8.5008 57.1157 7.9668 57.1157 7.2948C57.1157 6.7428 57.2717 6.2388 57.5837 5.7828C57.9077 5.3268 58.3637 4.9668 58.9517 4.7028C59.5517 4.4388 60.2537 4.3068 61.0577 4.3068C62.2457 4.3068 63.1937 4.6068 63.9017 5.2068C64.6097 5.7948 64.9997 6.5928 65.0717 7.6008H62.6597C62.6237 7.2048 62.4557 6.8928 62.1557 6.6648C61.8677 6.4248 61.4777 6.3048 60.9857 6.3048C60.5297 6.3048 60.1757 6.3888 59.9237 6.5568C59.6837 6.7248 59.5637 6.9588 59.5637 7.2588C59.5637 7.5948 59.7317 7.8528 60.0677 8.0328C60.4037 8.2008 60.9257 8.3748 61.6337 8.5548C62.3537 8.7348 62.9477 8.9208 63.4157 9.1128C63.8837 9.3048 64.2857 9.6048 64.6217 10.0128C64.9697 10.4088 65.1497 10.9368 65.1617 11.5968C65.1617 12.1728 64.9997 12.6888 64.6757 13.1448C64.3637 13.6008 63.9077 13.9608 63.3077 14.2248C62.7197 14.4768 62.0297 14.6028 61.2377 14.6028Z" fill="white"/>
<path d="M88.3133 1.8768L84.8033 14.4408H81.8333L79.4753 5.4948L77.0093 14.4408L74.0573 14.4588L70.6733 1.8768H73.3733L75.5873 11.6328L78.1433 1.8768H80.9513L83.3633 11.5788L85.5953 1.8768H88.3133ZM89.3108 9.4188C89.3108 8.4108 89.5088 7.5168 89.9048 6.7368C90.3128 5.9568 90.8588 5.3568 91.5428 4.9368C92.2388 4.5168 93.0128 4.3068 93.8648 4.3068C94.6088 4.3068 95.2568 4.4568 95.8088 4.7568C96.3728 5.0568 96.8228 5.4348 97.1588 5.8908V4.4688H99.6968V14.4408H97.1588V12.9828C96.8348 13.4508 96.3848 13.8408 95.8088 14.1528C95.2448 14.4528 94.5908 14.6028 93.8468 14.6028C93.0068 14.6028 92.2388 14.3868 91.5428 13.9548C90.8588 13.5228 90.3128 12.9168 89.9048 12.1368C89.5088 11.3448 89.3108 10.4388 89.3108 9.4188ZM97.1588 9.4548C97.1588 8.8428 97.0388 8.3208 96.7988 7.8888C96.5588 7.4448 96.2348 7.1088 95.8268 6.8808C95.4188 6.6408 94.9808 6.5208 94.5128 6.5208C94.0448 6.5208 93.6128 6.6348 93.2168 6.8628C92.8208 7.0908 92.4968 7.4268 92.2448 7.8708C92.0048 8.3028 91.8848 8.8188 91.8848 9.4188C91.8848 10.0188 92.0048 10.5468 92.2448 11.0028C92.4968 11.4468 92.8208 11.7888 93.2168 12.0288C93.6248 12.2688 94.0568 12.3888 94.5128 12.3888C94.9808 12.3888 95.4188 12.2748 95.8268 12.0468C96.2348 11.8068 96.5588 11.4708 96.7988 11.0388C97.0388 10.5948 97.1588 10.0668 97.1588 9.4548ZM104.678 1.1208V14.4408H102.158V1.1208H104.678ZM109.688 1.1208V14.4408H107.168V1.1208H109.688ZM121.448 9.2388C121.448 9.5988 121.424 9.9228 121.376 10.2108H114.086C114.146 10.9308 114.398 11.4948 114.842 11.9028C115.286 12.3108 115.832 12.5148 116.48 12.5148C117.416 12.5148 118.082 12.1128 118.478 11.3088H121.196C120.908 12.2688 120.356 13.0608 119.54 13.6848C118.724 14.2968 117.722 14.6028 116.534 14.6028C115.574 14.6028 114.71 14.3928 113.942 13.9728C113.186 13.5408 112.592 12.9348 112.16 12.1548C111.74 11.3748 111.53 10.4748 111.53 9.4548C111.53 8.4228 111.74 7.5168 112.16 6.7368C112.58 5.9568 113.168 5.3568 113.924 4.9368C114.68 4.5168 115.55 4.3068 116.534 4.3068C117.482 4.3068 118.328 4.5108 119.072 4.9188C119.828 5.3268 120.41 5.9088 120.818 6.6648C121.238 7.4088 121.448 8.2668 121.448 9.2388ZM118.838 8.5188C118.826 7.8708 118.592 7.3548 118.136 6.9708C117.68 6.5748 117.122 6.3768 116.462 6.3768C115.838 6.3768 115.31 6.5688 114.878 6.9528C114.458 7.3248 114.2 7.8468 114.104 8.5188H118.838ZM126.221 6.5388V11.3628C126.221 11.6988 126.299 11.9448 126.455 12.1008C126.623 12.2448 126.899 12.3168 127.283 12.3168H128.453V14.4408H126.869C124.745 14.4408 123.683 13.4088 123.683 11.3448V6.5388H122.495V4.4688H123.683V2.0028H126.221V4.4688H128.453V6.5388H126.221Z" fill="#3EDCE2"/>
</svg>
